<svg width="193" height="25" viewBox="0 0 193 25" xmlns="http://www.w3.org/2000/svg">
    <g fill="#151515" fill-rule="nonzero">
        <path d="M30.961 24.339c-3.223 0-5.682-.827-7.378-2.523-1.696-1.696-2.587-4.07-2.587-7.166V.805h4.961v13.272c0 3.732 1.718 5.746 5.004 5.746 3.286 0 5.025-2.014 5.025-5.746V.805h4.94V14.65c0 3.116-.87 5.512-2.566 7.166-1.696 1.653-4.176 2.523-7.399 2.523zM44.085 23.872V.805h6.911l5.81 12.848L62.445.805h6.932v23.067h-4.94V6.784l-5.512 12.254h-4.39l-5.49-12.254v17.088zM72.707 23.872V.805h9.752c2.523 0 4.58.657 6.191 2.014 1.611 1.357 2.353 3.202 2.353 5.513 0 2.31-.805 4.155-2.353 5.512-1.548 1.357-3.668 2.035-6.19 2.035h-4.814v7.993h-4.94zm4.94-12.254h4.282c2.523 0 3.901-1.187 3.901-3.286 0-2.1-1.4-3.244-3.964-3.244h-4.22v6.53zM94.692 22.346c-1.76-1.293-2.629-3.01-2.629-5.11a9.689 9.689 0 0 1 .467-2.82l4.749 1.103a4.177 4.177 0 0 0-.276 1.526c0 1.993 1.993 3.244 5.046 3.244s4.453-1.102 4.453-2.926c0-1.378-1.018-2.29-3.117-2.67l-3.053-.552c-5.343-.912-7.696-3.138-7.696-6.87 0-1.992.784-3.646 2.417-4.982C96.685.954 98.763.34 101.434.34c6.064 0 9.223 2.756 9.583 7.802l-4.876.594c-.36-2.884-1.993-4.347-4.876-4.347-2.163 0-3.69 1.04-3.69 2.63 0 1.59 1.188 2.353 3.626 2.777l3.053.53c5.046.911 7.166 3.031 7.166 6.572 0 2.226-.869 4.028-2.586 5.385-1.718 1.357-4.05 2.057-6.87 2.057-2.82 0-5.512-.657-7.272-1.993zM119.032 23.872V5.322h-7.103V.804h19.124v4.516h-7.081v18.551zM146.318 23.872l-1.93-5.533h-8.798l-1.866 5.533h-5.173L136.777.805h6.488l8.226 23.067h-5.173zm-9.435-9.413h6.149l-3.117-9.01-3.032 9.01zM172.947 19.23v4.579c-.46.145-.939.217-1.42.212-2.107 0-3.866-.51-5.28-1.527-1.42-.996-2.798-2.904-4.028-5.682l-.679-1.441h-3.137v8.501h-4.94V.805h10.367c2.48 0 4.516.657 6.043 1.95 1.526 1.294 2.29 3.096 2.29 5.386 0 3.477-1.994 5.851-5.45 6.551 1.888 3.604 3.456 4.643 5.407 4.643.28.003.557-.032.827-.106zM158.403 5.087v6.042h4.897c2.438 0 3.668-.996 3.668-3.032 0-2.035-1.25-3.01-3.753-3.01h-4.812zM180.495 23.872V5.322h-7.124V.804h19.145v4.516h-7.082v18.551zM3.78.805v4.516h9.054v9.668c0 3.286-1.188 4.94-3.583 4.94-2.396 0-3.35-1.42-3.35-3.816.001-.648.065-1.294.19-1.93l-4.812-.869a15.053 15.053 0 0 0-.36 3.053c0 4.813 3.031 7.972 8.31 7.972 5.28 0 8.566-3.01 8.566-8.226V.805H3.78z"/>
    </g>
</svg>
