<?xml version="1.0" encoding="utf-8"?>
<!-- Generator: Adobe Illustrator 19.2.1, SVG Export Plug-In . SVG Version: 6.00 Build 0)  -->
<svg version="1.1" id="layer" xmlns="http://www.w3.org/2000/svg" xmlns:xlink="http://www.w3.org/1999/xlink" x="0px" y="0px"
	 viewBox="0 0 652 652" style="enable-background:new 0 0 652 652;" xml:space="preserve">
<style type="text/css">
	.st0{fill:#F36C21;}
	.st1{fill:#FFFFFF;}
</style>
<path class="st0" d="M238.2,70.5l-166.7,250l250,250l250-250l-166.9-250H238.2z"/>
<path class="st1" d="M111.2,315.8l145.1-212.7h130.4l145.1,212.7L321.5,525.2L111.2,315.8L111.2,315.8z M394.9,88.6H247.9
	L93.2,317.9l228.2,227.2l228.3-227.2L394.9,88.6L394.9,88.6z"/>
<path class="st1" d="M303.9,194.7c0,0-14.1-22.1,1.1-27.1c0,0,0.5-6.2-10.7-6.2c-11.1,0-10.2,10.2-10.5,10.4
	S283.2,183.7,303.9,194.7 M318.4,194.5c0,0,17-10.2,14.5-28.3c0,0-0.7-11.9-12.5-12.1c0,0-12.3-0.9-12.7,11.5
	C307.8,165.6,331.6,159.7,318.4,194.5 M329.2,139.9l-3.3-9.8h-11.7l-3.3,9.8l9.2,8.1L329.2,139.9z M280.5,194.3
	c0,0-5.7-15.4,0.7-17.9c0,0-2-5.1-6.3-5.1c-4.3,0-7.3,2.4-7.3,7.5C267.6,183.9,276,192.3,280.5,194.3 M242.1,269.5
	c-3.9,12.8,11.6,16.1,11.6,16.1c-4.3-3.8,1.4-4.9,1.4-4.9c5-1.1,14.8-0.2,14.8-0.2c26.1,3.5,23,23.2,23,23.2
	c-10.7-3.8-16.6,1.5-16.6,1.5c-7.5,6.4-11.1,1.3-11.1,1.3c-5,18.8,5.7,27.4,5.7,27.4c3.9-23.4,27.5-25.2,27.5-25.2
	c-0.2-24,28.4-17.4,28.4-17.4c-5.7-12.8-19.1-14.1-19.1-14.1c20.4-2.9,18.4-20.1,18.4-20.1c-12.5,8.6-30.4,4.9-30.4,4.9
	c18-6.6,16.4-18.3,16.4-18.3c-10.9,8.2-24.1,5.7-24.1,5.7c7.7-2,4.1-14.1,4.1-14.1c-1.1,6.4-16.4,6-16.4,6
	c-12-0.9-11.1,8.2-11.1,8.2c0.5,1.1,7,3.8,11.1,5.3c4.1,1.5,5,3.3,5,3.3c-0.4,5.5-5.7,4.9-5.7,4.9c-4.8,0-4.8-5.1-4.8-5.1
	c-8.4-2.6-26.6,4.6-26.6,4.6C236.7,265.6,242.1,269.5,242.1,269.5 M337.3,194.7c0,0,21.1-6.6,20.2-25.8c0,0-1.1-8.4-10.2-8.2
	c0,0-8.4,0.4-10.4,6.6C336.8,167.4,350.2,176,337.3,194.7 M372.3,195.6c-11.1,9.5-42,5.5-42,5.5c-18.9-2.2-22.5,1.4-29.8,7.7
	c-7.9,7-5.7,22.1-5.7,22.1c17-24.9,30.9-13.5,30.9-13.5c-15.7,8.2-11.6,24.3-11.6,24.3c14.1-20.9,33.6-11.2,33.6-11.2
	c11.2,5.3,26.1,4,26.1,4c22.5-0.9,27.7-21,27.7-21c-18.6,9.3-46.8,1.8-46.8,1.8C373.4,206.2,372.3,195.6,372.3,195.6 M316.9,343
	c7.7,11.5,13.2,31.6,13.2,31.6c10.2-12.8-0.7-29.6-0.7-29.6c-17-19.9-11.8-30.9-11.8-30.9C305.7,328.9,316.9,343,316.9,343
	 M358.4,238.9c0,0-29.3-7.5-28.9,16.8c0,0,17.3-11,31.8-0.2c1.8-0.4,18.2,13,37.3-5.3c0,0,8.6-11.7,20.7-10.8c0,0-8.9-12.8-26.3-3.1
	C375.5,245.9,381.6,247.5,358.4,238.9 M379.6,268.2c0,0-36.1-20.1-47.5,9.7c0,0,22.5-14.1,44.3,3.1c0,0,21.4,13,36.6,0.7
	c0,0,13.4-10.6,15.9-17.4C428.8,264.3,409.2,280.3,379.6,268.2 M360.7,193.4c0,0,11.1-4,13.2-15.7c0,0,0.4-6.6-6.4-6.8
	c0,0-5.2-0.4-7.3,4.2C360.2,175.1,367.1,182.8,360.7,193.4 M302.3,201.7c0,0-19.9-10.5-29,8.3c0,0-7.3,10.2,10,25.8
	C283.2,235.8,272.5,211,302.3,201.7 M373.6,326c0,0-14.3-31.6-44.7-23.6c0,0,18.2,5.7,28.9,23.6c0,0,11.8,32,45,16.1
	C402.7,342.2,381.6,343.3,373.6,326 M397.3,297.1c-14.5,9.9-26.7-6.4-27.7-7.5c-3.8-4-21.6-19.4-37,0.9c0,0,18.4-5.1,32.5,11.9
	c14.1,17,29.8,15,40,6.4c10.2-8.6,21.1-11.2,21.1-11.2S411.8,287.2,397.3,297.1 M375,360.7c0,0-19.5-3.1-24.8-24.5
	c0,0-5.5-19.7-27-26.5c-2.2-0.7,8.6,8.6,14.8,28.9C338,338.6,350.5,370,375,360.7 M276.9,299.1c-5-16.6-32.5-6.2-32.5-6.2
	c-27.5,9.7-28.8-8.8-28.8-8.8c-12.3,11.2-6.6,17.4-1.6,21.4c5,4,15.5,4.4,35.2-3.3C268.9,294.5,276.9,299.1,276.9,299.1
	 M306.4,347.4c-10.2-17.7,0-29.6,0-29.6c-16.4,4.6-11.1,23.2-11.1,23.2c6.1,12.1,3,30,3,30C312.5,368.9,306.4,347.4,306.4,347.4
	 M286.2,341.1c-7-13.5,10.9-26.1,10.9-26.1c-26.8,9.3-17.7,25.2-17.7,25.2c3.6,11-1.4,21-1.4,21
	C291.6,352.8,286.2,341.1,286.2,341.1 M259.6,399.5l20.4,21.7h-14.1l-13.5-15l-0.7,0.8l-1.9,2v12.2H239V377h10.7v18.4
	c5.6-6.1,11-12.3,16.5-18.4h13.5L259.6,399.5z M314.6,421.2l-18.1-25v24.8h-11v-44h10.4l18,25v-24.8h11v44H314.6z M371.8,377
	l-20.5,47.7L330.8,377h11.4l9,22l9.1-22H371.8z M401.1,407.8c0-3.5-5-3.8-6.3-3.8h-6.5v7.6h6.1C396.9,411.6,401.1,411.1,401.1,407.8
	z M388.2,394.3h6.1c0,0,6,0,6-3.8c0-2.8-3.1-3.9-6-3.9h-6.1V394.3z M406,399.1c5.2,2.3,5.7,6.6,5.7,8.2v0.7
	c0,12.6-14.1,13.3-17.4,13.3h-16.8V377h16.9c1.4,0,16.7,0.3,16.7,13C411.1,394.5,408.9,397.4,406,399.1z"/>
</svg>
